<svg xmlns="http://www.w3.org/2000/svg" width="68.75" height="68.75" viewBox="15.5 0 68.75 68.75" enable-background="new 15.5 0 68.75 68.75"><path d="M76.258 23.842s.41-3.143 3.553-5.056c-1.196-.922-1.469-.957-1.469-.957s-1.401 1.161-1.674 1.776c-.034-.546.273-1.742.922-2.357.41-.376-2.118-.752-2.561-.547-.444.204-1.025 1.537-1.059 1.742-.035.204-.752.239-.547-.034s.752-1.196 1.025-1.469c0 0-1.367-.103-1.503-.034-.136.069-1.333 2.05-1.469 2.699-1.981-.341-4.201-2.05-5.192-2.084-.991-.034-.581.581-2.289.41.273-1.367.41-2.664.17-3.724 0 0-5.398-9.599-21.145-9.223-1.333 0-1.093 2.904.819 3.86 0 0-1.508 2.87-1.659 3.007-.151.136-1.586-.205-2.269-1.469-.683-1.263-10.111-8.369-11.648-8.744-1.537-.376-5.192 2.733-5.465 3.587-.273.854 3.313 3.279 4.919 3.416.868.073.581-.581 1.059-.273 1.947.922 7.071 6.115 7.618 16.533.129 2.712.854 5.307-1.241 10.18-1.184 3.006-2.323 12.251-1.594 15.531.729 3.279 1.458 8.973 10.066 12.48-.501 2.596-.729 4.191-.729 4.191l6.013-9.064s.045-.82-.866-1.047c-.91-.229-3.324-5.921-2.87-6.469 1.976-2.529 6.559-6.832 8.381-7.742 1.652 2.224 3.95 6.73 3.916 7.742-.034 1.014 3.723 2.551 5.295 1.629.273-.17 4.133-4.03 3.45-9.087-1.264.239-2.152.718-2.459.956.41-1.537.547-9.77-.444-10.931-.99-1.161-3.792-.376-4.201-.171.341-.479.956-3.04.546-3.519-.41-.479 4.919-4.714 6.184-4.919 1.264-.204 6.456.922 7.344 1.606 1.094-.103 3.724-.239 5.09.17 0 0 .512-2.05.307-2.596-.001-.307-2.324.001-2.324.001zm-26.235 2.835c-1.196-.068-2.05-2.255-2.152-2.494.444.205 3.274 1.15 3.928 1.264.444.274-.58 1.298-1.776 1.23zm8.027.239c-.922.239-2.37-.774-1.776-.888.745-.144 2.528-.615 3.143-.854.615-.239-.444 1.503-1.367 1.742z"/></svg>