<svg xmlns="http://www.w3.org/2000/svg" width="100" height="100" viewBox="0 0 100 100"><path d="M61.741 60.889c.963-1.778 1.481-3.778 1.481-5.852 0-6.889-5.63-12.519-12.519-12.519s-12.519 5.63-12.519 12.519c0 2.148.519 4.148 1.481 5.926-1.037-.222-2.222.074-3.037.963-1.333 1.333-1.556 6.519-1.556 6.519s5.111-.37 6.37-1.704c.593-.593.963-1.407.963-2.296 2.222 1.926 5.111 3.111 8.296 3.111 3.037 0 5.852-1.111 8.074-2.963.074.741.37 1.481.963 2.074 1.333 1.333 6.37 1.704 6.37 1.704s-.296-5.185-1.556-6.519c-.737-.741-1.774-1.037-2.811-.963zm-11.037 3.333c-5.037 0-9.185-4.074-9.185-9.185v-.593c2.37-.444 7.037-1.778 9.037-5.926 2.074 4.222 7.037 5.556 9.259 5.926v.593c.074 5.037-4.074 9.185-9.111 9.185zm2.592-11.407c-.963 0-1.778.815-1.778 1.778s.815 1.778 1.778 1.778 1.778-.815 1.778-1.778-.741-1.778-1.778-1.778zm-5.481 0c-.963 0-1.778.815-1.778 1.778s.815 1.778 1.778 1.778c.963 0 1.778-.815 1.778-1.778s-.815-1.778-1.778-1.778zm25.259-20.148c-.963 0-1.778.815-1.778 1.778s.815 1.778 1.778 1.778 1.778-.815 1.778-1.778c0-1.038-.815-1.778-1.778-1.778zm10.074 5.111c-.148-.222-.37-.444-.593-.593.148-.741.222-1.481.222-2.296 0-6.889-5.63-12.519-12.519-12.519s-12.517 5.63-12.517 12.519 5.63 12.519 12.519 12.519c2.444 0 4.667-.667 6.593-1.852 2.889 1.481 7.778 2.222 7.778 2.222s.295-7.852-1.483-10zm-12.889 6.222c-5.037 0-9.185-4.074-9.185-9.185 0-4.074 2.667-7.481 6.296-8.667 2.074 6.741 9.481 7.111 11.926 7.037.074.519.148 1.111.148 1.63 0 5.111-4.148 9.185-9.185 9.185zm-2.666-11.333c-.963 0-1.778.815-1.778 1.778s.815 1.778 1.778 1.778 1.778-.815 1.778-1.778c-.001-1.038-.815-1.778-1.778-1.778zm-19.778-15.186c.963 0 1.778-.815 1.778-1.778s-.815-1.778-1.778-1.778c-.963 0-1.704.815-1.704 1.778 0 .964.741 1.778 1.704 1.778zm5.481 0c.963 0 1.778-.815 1.778-1.778s-.815-1.778-1.778-1.778c-.963 0-1.778.815-1.778 1.778.075.964.815 1.778 1.778 1.778zm-2.815 11.186c6.889 0 12.519-5.63 12.519-12.519 0-5.037-2.963-9.407-7.259-11.333.815-2.296.889-4.296.889-4.296-1.481.222-2.667.667-3.778 1.185.074-.444.074-.667.074-.667-3.185.519-5.333 1.852-6.815 3.407-4.741 1.778-8.148 6.37-8.148 11.704 0 6.889 5.63 12.519 12.518 12.519zm0-21.704c5.037 0 9.185 4.074 9.185 9.185 0 3.481-1.926 6.519-4.815 8.074v-.148c0-2.444-2-4.37-4.37-4.37s-4.37 1.926-4.37 4.37v.148c-2.815-1.556-4.815-4.593-4.815-8.074 0-5.037 4.148-9.185 9.185-9.185zm-17.333 25.259c-.963 0-1.778.815-1.778 1.778 0 .963.815 1.778 1.778 1.778s1.778-.815 1.778-1.778c-.074-1.037-.815-1.778-1.778-1.778zm9.852 2.148c0-6.889-5.63-12.519-12.519-12.519s-12.519 5.63-12.519 12.519 5.63 12.519 12.519 12.519 12.519-5.556 12.519-12.519zm-12.519 9.186c-5.037 0-9.185-4.074-9.185-9.185v-.444c1.037-.074 2.741-.222 4.741-.741-.074.222-.148.519-.148.741 0 .963.815 1.778 1.778 1.778s1.778-.815 1.778-1.778c0-.667-.37-1.185-.889-1.481 2.667-.963 5.556-2.593 7.63-5.259 2.148 1.704 3.481 4.296 3.481 7.185 0 5.109-4.148 9.184-9.186 9.184z"/></svg>